<svg id="Icon_feather-shopping-cart" data-name="Icon feather-shopping-cart" xmlns="http://www.w3.org/2000/svg" width="20.894" height="20.024" viewBox="0 0 20.894 20.024">
  <path id="Path_15884" data-name="Path 15884" d="M13.74,30.87a.87.87,0,1,1-.87-.87A.87.87,0,0,1,13.74,30.87Z" transform="translate(-5.034 -12.591)" fill="#fff"/>
  <path id="Path_15863_-_Outline" data-name="Path 15863 - Outline" d="M12.745,32.491a1.745,1.745,0,1,1,1.745-1.745A1.747,1.747,0,0,1,12.745,32.491Z" transform="translate(-4.909 -12.467)" fill="#fff"/>
  <path id="Path_15885" data-name="Path 15885" d="M30.24,30.87a.87.87,0,1,1-.87-.87A.87.87,0,0,1,30.24,30.87Z" transform="translate(-11.962 -12.591)" fill="#fff"/>
  <path id="Path_15864_-_Outline" data-name="Path 15864 - Outline" d="M29.245,32.491a1.745,1.745,0,1,1,1.745-1.745A1.747,1.747,0,0,1,29.245,32.491Z" transform="translate(-11.837 -12.467)" fill="#fff"/>
  <path id="Path_15865" data-name="Path 15865" d="M17.421,15.3H8.936A2.613,2.613,0,0,1,6.33,13.2L4.876,5.935q-.009-.036-.015-.073L4.139,2.251H1.375A.875.875,0,1,1,1.375.5H4.856a.875.875,0,0,1,.858.7l.73,3.647H20.519a.875.875,0,0,1,.86,1.039l-1.392,7.3V13.2A2.613,2.613,0,0,1,17.421,15.3ZM8.928,13.553H17.42a.864.864,0,0,0,.848-.694L19.461,6.6H6.795l1.252,6.254a.865.865,0,0,0,.865.7Z" transform="translate(-0.5 -0.5)" fill="#fff"/>
</svg>
