<svg xmlns="http://www.w3.org/2000/svg" width="22.222" height="19.456" viewBox="0 0 22.222 19.456">
  <path id="Path_15886" data-name="Path 15886" d="M786.037,1211.893a6.489,6.489,0,0,0-5.517-5,6.411,6.411,0,0,0-5.408,1.829,6.41,6.41,0,0,0-5.408-1.829,6.489,6.489,0,0,0-5.517,5c-.023.1-.037.2-.051.3a4.45,4.45,0,0,0-.135,1.075,4.963,4.963,0,0,0,.129,1.228c.01.076.02.154.038.235a10.509,10.509,0,0,0,1.875,3.914,24.614,24.614,0,0,0,4.336,4.487,40.982,40.982,0,0,0,4.033,2.934,1.163,1.163,0,0,0,1.4,0,40.975,40.975,0,0,0,4.033-2.934,24.612,24.612,0,0,0,4.336-4.487,10.51,10.51,0,0,0,1.875-3.914c.018-.08.028-.159.038-.235a4.969,4.969,0,0,0,.129-1.228,4.454,4.454,0,0,0-.135-1.075C786.074,1212.094,786.06,1211.994,786.037,1211.893Zm-2.628,4.631a17.133,17.133,0,0,1-3.307,3.956,37.049,37.049,0,0,1-4.99,3.865,37.04,37.04,0,0,1-4.99-3.865,17.139,17.139,0,0,1-3.307-3.956,6.526,6.526,0,0,1-.985-3.241l.008-.1c.008-.107.018-.24.032-.372a4.7,4.7,0,0,1,8.477-2.2,1.027,1.027,0,0,0,.452.37.793.793,0,0,0,.63,0,1.027,1.027,0,0,0,.451-.37,4.7,4.7,0,0,1,8.477,2.2c.013.132.023.265.032.375l.008.1A6.526,6.526,0,0,1,783.409,1216.524Z" transform="translate(-764 -1206.842)" fill="#fff"/>
</svg>
