<svg xmlns="http://www.w3.org/2000/svg" width="17.93" height="19.944" viewBox="0 0 17.93 19.944">
  <g id="Icon_feather-user" data-name="Icon feather-user" transform="translate(0 0)">
    <path id="Path_15863" data-name="Path 15863" d="M22.024,29.355a.905.905,0,0,1-.905-.905V26.435a3.128,3.128,0,0,0-3.125-3.125H9.935A3.125,3.125,0,0,0,6.81,26.435V28.45a.905.905,0,0,1-1.81,0V26.435A4.935,4.935,0,0,1,9.935,21.5h8.06a4.941,4.941,0,0,1,4.935,4.935V28.45A.905.905,0,0,1,22.024,29.355Z" transform="translate(-5 -9.411)" fill="#fff"/>
    <path id="Path_15864" data-name="Path 15864" d="M15.935,13.37A4.935,4.935,0,1,1,20.87,8.435,4.941,4.941,0,0,1,15.935,13.37Zm0-8.06A3.125,3.125,0,1,0,19.06,8.435,3.128,3.128,0,0,0,15.935,5.31Z" transform="translate(-6.97 -3.5)" fill="#fff"/>
  </g>
</svg>
